PathFileType	4	(X/Y/Z)	C:/Users/opensim2020/Desktop/walking_exp_matlab/subject02_walking10_straight_01.trc	
DataRate	CameraRate	NumFrames	NumMarkers	Units	OrigDataRate	OrigDataStartFrame	OrigNumFrames	
100.00	100.00	7	43	mm	100.00	490	328	
Frame#	Time	LFHD			RFHD			LBHD			RBHD			C7			T10			CLAV			STRN			RBAK			LSHO			LUPA			LELB			LFRM			LWRA			LWRB			LFIN			RSHO			RUPA			RELB			RFRM			RWRA			RWRB			RFIN			LASI			RASI			LPSI			RPSI			LTHI			LKNE			LTIB			LANK			LHEE			LTOE			RTHI			RKNE			RTIB			RANK			RHEE			RTOE			*39			*40			*41			*42			
		X1	Y1	Z1	X2	Y2	Z2	X3	Y3	Z3	X4	Y4	Z4	X5	Y5	Z5	X6	Y6	Z6	X7	Y7	Z7	X8	Y8	Z8	X9	Y9	Z9	X10	Y10	Z10	X11	Y11	Z11	X12	Y12	Z12	X13	Y13	Z13	X14	Y14	Z14	X15	Y15	Z15	X16	Y16	Z16	X17	Y17	Z17	X18	Y18	Z18	X19	Y19	Z19	X20	Y20	Z20	X21	Y21	Z21	X22	Y22	Z22	X23	Y23	Z23	X24	Y24	Z24	X25	Y25	Z25	X26	Y26	Z26	X27	Y27	Z27	X28	Y28	Z28	X29	Y29	Z29	X30	Y30	Z30	X31	Y31	Z31	X32	Y32	Z32	X33	Y33	Z33	X34	Y34	Z34	X35	Y35	Z35	X36	Y36	Z36	X37	Y37	Z37	X38	Y38	Z38	X39	Y39	Z39	X40	Y40	Z40	X41	Y41	Z41	X42	Y42	Z42	X43	Y43	Z43	

42	0.410	1369.97034	-1090.51318	1715.02881	1510.23169	-1110.19348	1684.38757	1338.07056	-1219.62170	1644.90747	1474.65613	-1252.00854	1613.52600	1398.37622	-1288.76929	1500.78210	1400.13989	-1354.32642	1228.71130	1386.49438	-1153.94250	1427.04663	1388.30017	-1110.43762	1252.90808	1455.94556	-1357.20398	1328.64673	1217.47241	-1213.90833	1479.84949	1126.79675	-1209.42529	1279.81274	1110.84802	-1192.66638	1137.81055	1106.84180	-1150.99915	1011.15131	1153.63831	-1071.44104	907.20605	1114.50940	-1110.42749	895.29504	1115.86707	-1072.81641	841.47101	1584.91687	-1215.01086	1452.56812	1664.93689	-1259.01660	1264.84131	1690.26123	-1252.25366	1120.37537	1715.45642	-1222.47107	1005.17664	1699.84949	-1171.61389	879.06543	1731.26843	-1217.13147	875.24548	1736.11975	-1177.89819	814.05298	1252.75525	-1146.08228	955.82617	1509.44397	-1123.95789	951.91284	1354.56360	-1346.21533	1006.54596	1468.84302	-1341.20129	1007.16992	1215.14673	-1267.34937	653.08136	1245.20837	-1338.39819	462.78610	1244.86023	-1449.10925	301.52365	1277.40625	-1510.09265	83.87569	1327.73547	-1552.97815	63.33449	1266.80725	-1363.48242	23.93804	1603.37805	-1140.81165	661.01709	1572.23718	-1077.33521	463.58273	1586.57715	-1071.85413	276.60217	1565.49878	-1041.51111	84.55561	1509.28406	-1064.36267	29.93003	1585.03503	-884.12726	42.26109	1450.97949	-1201.11841	1775.23853	-3357.47729	2845.72534	1034.45679						 
43	0.420	1373.57422	-1083.48340	1715.41431	1514.40112	-1102.96484	1684.87024	1341.78015	-1212.20923	1645.10107	1478.19128	-1244.34009	1613.16479	1401.96277	-1280.77844	1501.15662	1403.50269	-1346.54065	1228.97083	1389.86145	-1146.14148	1427.26733	1391.76343	-1102.41309	1253.23755	1459.71252	-1349.20581	1328.90186	1220.71680	-1206.26563	1479.91956	1130.38550	-1203.38318	1279.67786	1115.01440	-1188.08923	1137.56409	1109.60999	-1149.10144	1010.11749	1154.68628	-1071.65381	903.84766	1115.80212	-1111.20361	893.50287	1116.57935	-1074.90222	838.44910	1588.43042	-1206.56335	1452.43445	1668.33923	-1251.42700	1265.00513	1693.18262	-1245.60498	1120.58203	1718.29346	-1216.38574	1005.07739	1702.58521	-1166.07605	878.57416	1733.94446	-1211.73486	874.98029	1739.02527	-1172.97595	813.84235	1255.86182	-1137.24500	955.61511	1512.35864	-1115.55835	952.29614	1358.01550	-1337.61780	1006.52911	1472.43982	-1332.59583	1008.29968	1217.26025	-1259.99817	653.29993	1246.89453	-1331.68298	463.67868	1246.16235	-1444.84619	304.15311	1277.27002	-1508.74988	87.01527	1327.64990	-1551.66553	67.28046	1266.61902	-1363.47632	24.01314	1606.23352	-1133.48755	662.16461	1574.36462	-1068.05347	465.08118	1589.35107	-1064.32874	277.56659	1565.84131	-1039.72852	84.90989	1509.78845	-1064.02222	30.48745	1585.80322	-883.51587	39.71534	1455.00513	-1194.29297	1775.37720	-3357.29614	2845.77344	1034.21094						 
44	0.430	1377.81653	-1076.14038	1716.57788	1517.95398	-1095.79883	1685.26025	1345.52405	-1204.58276	1645.30835	1481.82922	-1236.80151	1613.09778	1405.52429	-1272.99646	1501.68494	1406.75293	-1338.69238	1229.37219	1393.26367	-1138.30847	1427.70959	1395.21155	-1094.32666	1253.79785	1463.43262	-1341.20007	1329.34692	1224.07813	-1198.45459	1480.31238	1134.61084	-1196.42090	1279.65271	1119.06042	-1183.41309	1137.60779	1112.30701	-1147.59253	1009.70032	1156.03174	-1072.35339	901.27948	1117.33374	-1112.43213	891.92596	1117.23389	-1077.70935	836.04980	1591.83533	-1198.35181	1452.75769	1671.80786	-1243.63477	1265.52637	1696.05603	-1238.65857	1120.97607	1721.14929	-1210.11780	1005.24359	1705.29541	-1160.35901	878.69141	1736.49536	-1206.20801	875.14099	1741.80884	-1167.60608	813.83643	1258.87634	-1128.81287	955.54645	1515.58289	-1107.04138	953.37445	1361.15076	-1328.67969	1006.72552	1475.70227	-1324.03845	1009.67847	1219.36670	-1252.44189	653.96350	1248.55200	-1324.62756	464.87924	1247.50305	-1440.26062	307.10425	1277.40771	-1507.62476	90.45887	1327.35474	-1550.22107	71.85843	1266.45947	-1363.35132	24.04738	1608.39575	-1125.22278	663.55975	1576.28601	-1058.88367	466.10495	1591.92847	-1057.55713	278.16379	1565.57483	-1038.00012	85.14641	1509.93994	-1063.47681	30.76066	1585.31738	-882.46381	38.06340	1459.00134	-1187.47375	1775.56482	-3360.26294	2845.18433	1034.17651						 
45	0.440	1381.43542	-1069.14868	1717.36267	1522.13135	-1088.64490	1686.14246	1349.20593	-1197.18091	1645.86182	1485.47705	-1229.28027	1613.18726	1409.03406	-1265.42346	1502.25781	1409.95215	-1330.73108	1229.75037	1396.63818	-1130.57007	1428.35583	1398.56018	-1086.47791	1254.56287	1467.13306	-1333.06689	1329.70398	1227.47424	-1190.53333	1480.90405	1138.36426	-1190.33557	1280.06201	1123.05676	-1178.94519	1137.93054	1115.14282	-1146.09705	1009.38800	1157.32874	-1073.31653	898.47620	1118.73486	-1113.79102	890.96228	1117.96973	-1080.68311	833.93878	1595.34888	-1190.07751	1453.46008	1675.24280	-1235.73657	1266.27832	1698.85840	-1231.33728	1121.39600	1723.88440	-1203.57556	1005.63702	1708.50281	-1154.46716	878.92053	1739.17273	-1200.45325	875.55627	1744.56787	-1162.35535	814.03912	1262.29736	-1120.04126	955.75696	1519.40845	-1097.43335	954.88025	1364.09094	-1319.68750	1007.22113	1478.83447	-1315.67847	1011.18170	1222.00635	-1243.97766	654.46344	1250.12903	-1316.93481	466.13065	1248.76489	-1435.14514	310.24490	1277.18262	-1505.72876	94.29893	1327.21985	-1548.18982	76.64490	1266.26843	-1363.07727	23.92726	1610.38806	-1115.73950	665.11359	1577.99182	-1050.18274	466.73273	1593.57324	-1051.77820	278.48532	1565.71924	-1036.14563	85.49969	1510.41272	-1063.32593	31.47897	1584.15344	-880.90350	36.84759	1462.97913	-1180.72888	1775.88281	-3360.30786	2845.25049	1034.29395						 
46	0.450	1385.55127	-1061.99158	1718.90088	1525.96924	-1081.51563	1687.01770	1352.94849	-1189.75513	1646.61169	1489.06775	-1221.76550	1613.47058	1412.44153	-1257.98840	1502.92126	1413.15491	-1322.74268	1230.24658	1400.02234	-1123.02429	1429.24500	1402.05005	-1078.49390	1255.57690	1470.82715	-1325.02832	1330.33313	1230.84277	-1182.71655	1481.71875	1142.37207	-1183.86609	1280.65271	1127.21387	-1174.36902	1138.55273	1118.05322	-1144.54114	1009.03723	1158.68359	-1074.38745	896.41693	1120.42493	-1115.28418	890.24377	1118.96790	-1083.83740	832.30792	1598.63818	-1181.91650	1454.29480	1678.79504	-1227.73169	1267.28418	1701.76709	-1224.05859	1122.41077	1726.78906	-1196.94128	1006.41248	1711.06738	-1148.38721	879.31171	1741.89258	-1194.46472	876.19348	1747.33130	-1156.79395	814.59680	1265.99207	-1111.14001	956.14575	1522.66406	-1089.27869	956.40643	1366.84558	-1310.58765	1007.80847	1481.78442	-1307.40198	1012.40674	1224.54883	-1235.59680	655.21973	1251.52991	-1308.59827	467.47971	1249.97131	-1429.48279	313.71759	1276.85388	-1503.48792	98.57229	1327.10376	-1545.74121	81.92144	1266.07446	-1362.82483	23.92586	1612.97241	-1105.14099	666.59552	1579.32471	-1042.38257	466.92767	1594.45337	-1046.80847	278.71799	1565.81226	-1034.62073	85.64542	1510.61987	-1063.00415	31.69896	1583.72620	-879.76306	35.92308	1466.91406	-1174.06433	1776.45544	-3357.22876	2845.83179	1034.21252						 
47	0.460	1389.28491	-1055.03821	1719.97925	1529.80078	-1074.47388	1688.06055	1356.61511	-1182.32471	1647.51501	1492.64526	-1214.35535	1613.96411	1415.75232	-1250.69397	1503.74902	1416.39392	-1314.67542	1230.82104	1403.38306	-1115.49573	1430.29065	1405.57874	-1070.37354	1256.91016	1474.39832	-1317.05457	1331.07031	1234.17261	-1175.04285	1482.74036	1146.25476	-1177.49976	1281.36377	1131.41467	-1169.83765	1139.44360	1121.00830	-1143.57776	1010.00549	1159.88757	-1075.91125	894.40015	1122.17029	-1117.08130	890.02472	1119.73059	-1087.33887	831.28479	1601.87109	-1174.24866	1455.60596	1682.26294	-1219.74060	1268.50488	1704.68457	-1216.44519	1123.50818	1729.62134	-1190.01941	1007.38452	1714.07568	-1141.98315	879.93878	1744.70374	-1188.22827	877.12708	1749.98486	-1150.77869	815.16180	1269.99951	-1102.15747	956.77008	1526.79578	-1080.07080	958.65698	1369.55811	-1301.52979	1008.50024	1484.70764	-1299.23206	1013.36334	1226.51294	-1227.43567	656.53864	1252.76050	-1299.56726	468.84888	1250.88330	-1423.65967	317.51395	1276.48596	-1500.92090	103.26385	1326.83618	-1542.72754	87.63641	1265.81152	-1362.58130	23.97142	1615.85486	-1094.21790	667.83783	1581.08740	-1035.24487	467.14667	1594.90845	-1042.88904	278.87088	1565.63855	-1033.59375	85.67949	1510.44727	-1062.71777	31.81806	1583.87390	-878.95715	35.04878	1470.79688	-1167.17261	1777.15332	-3360.37036	2845.30127	1034.10754						 
48	0.470	1393.28699	-1047.99915	1721.71558	1533.38037	-1067.39893	1689.12573	1360.18188	-1175.17566	1648.62183	1496.14038	-1207.02100	1614.67297	1419.01904	-1243.47803	1504.73645	1419.67871	-1306.60388	1231.57861	1406.76526	-1107.99585	1431.63611	1408.98914	-1062.39404	1258.26379	1477.96460	-1309.47241	1332.07800	1237.45935	-1167.54395	1483.89819	1150.07312	-1171.00696	1282.20593	1135.68494	-1165.18408	1140.47449	1124.13464	-1142.44128	1010.97858	1161.59363	-1077.04968	893.29242	1124.13440	-1118.82593	890.10089	1120.71960	-1090.82813	830.54218	1605.07227	-1166.67114	1456.82349	1685.68652	-1211.78516	1269.77942	1707.59216	-1208.69202	1124.77576	1732.47314	-1182.81067	1008.50757	1716.84680	-1135.51782	880.85358	1747.49365	-1181.72852	878.33057	1752.64551	-1144.62292	815.92542	1274.45813	-1092.97852	957.77368	1530.28552	-1072.34546	960.60199	1372.37415	-1292.73022	1009.26593	1487.65991	-1290.99109	1013.95343	1229.14429	-1218.43848	657.58624	1253.81750	-1289.87671	470.30319	1251.85852	-1416.90161	321.49609	1276.06848	-1497.93616	108.34485	1326.82825	-1539.33704	93.99984	1265.54956	-1362.34094	24.00483	1619.15942	-1083.71826	668.65442	1582.32227	-1029.23083	466.87347	1595.15930	-1040.12122	278.80319	1565.41736	-1032.90674	85.73599	1510.34790	-1062.59790	31.90888	1583.64587	-878.22919	34.75311	1474.91467	-1160.76392	1778.16028	-3360.32935	2845.27710	1034.17432						 
